<?xml version="1.0" encoding="utf-8"?>
<!-- Generator: Adobe Illustrator 25.3.0, SVG Export Plug-In . SVG Version: 6.00 Build 0)  -->
<svg version="1.1" id="black_and_grey" xmlns="http://www.w3.org/2000/svg" xmlns:xlink="http://www.w3.org/1999/xlink" x="0px" width="190px"
	 y="0px" viewBox="0 0 1080 211.17" style="enable-background:new 0 0 1080 211.17;" xml:space="preserve">
<style type="text/css">
	.st0{fill:#878787;}
	.st1{fill:none;}
</style>
<path d="M11.51,90.74V12.18h15.43l32.15,52.46V12.18h14.74v78.55H57.91L26.24,39.51v51.23H11.51z"/>
<path d="M88.36,90.74V12.18h58.25v13.29h-42.39v17.41h39.44v13.24h-39.44V77.5h43.89v13.24H88.36z"/>
<path d="M163.08,90.74V12.18h23.74l14.25,53.58l14.09-53.58h23.79v78.55h-14.74V28.9l-15.59,61.84h-15.27L177.82,28.9v61.84H163.08z
	"/>
<path d="M253.77,90.74V12.18h58.25v13.29h-42.39v17.41h39.44v13.24h-39.44V77.5h43.89v13.24H253.77z"/>
<path d="M343.7,90.74V25.47h-23.31V12.18h62.43v13.29h-23.26v65.27H343.7z"/>
<path d="M386.26,65.16l15.43-1.52c0.93,5.26,2.81,9.12,5.65,11.59c2.84,2.47,6.67,3.7,11.49,3.7c5.11,0,8.96-1.1,11.55-3.29
	c2.59-2.19,3.88-4.76,3.88-7.7c0-1.89-0.54-3.49-1.63-4.81c-1.09-1.32-2.99-2.48-5.71-3.45c-1.86-0.65-6.09-1.81-12.7-3.48
	c-8.5-2.14-14.47-4.77-17.9-7.89c-4.82-4.39-7.23-9.74-7.23-16.05c0-4.06,1.13-7.86,3.4-11.4s5.54-6.23,9.81-8.08
	c4.27-1.85,9.42-2.77,15.46-2.77c9.86,0,17.28,2.2,22.26,6.58c4.98,4.39,7.6,10.25,7.85,17.57l-15.86,0.71
	c-0.68-4.1-2.13-7.05-4.37-8.84c-2.23-1.8-5.58-2.69-10.05-2.69c-4.61,0-8.22,0.96-10.82,2.88c-1.68,1.23-2.52,2.88-2.52,4.95
	c0,1.89,0.78,3.5,2.36,4.84c2,1.71,6.86,3.48,14.57,5.33c7.72,1.85,13.42,3.76,17.12,5.74c3.7,1.98,6.59,4.68,8.68,8.11
	c2.09,3.43,3.13,7.66,3.13,12.7c0,4.57-1.25,8.85-3.75,12.84c-2.5,3.99-6.04,6.96-10.61,8.89c-4.57,1.94-10.27,2.91-17.09,2.91
	c-9.93,0-17.56-2.33-22.88-6.99C390.48,80.88,387.3,74.09,386.26,65.16z"/>
<path d="M512.8,61.96l15.38,4.92c-2.36,8.66-6.28,15.09-11.76,19.29c-5.48,4.2-12.44,6.3-20.87,6.3c-10.43,0-19-3.6-25.72-10.79
	c-6.72-7.2-10.07-17.04-10.07-29.52c0-13.2,3.38-23.46,10.13-30.76s15.63-10.96,26.63-10.96c9.61,0,17.41,2.87,23.42,8.6
	c3.57,3.39,6.25,8.26,8.04,14.61l-15.7,3.79c-0.93-4.11-2.87-7.36-5.81-9.74c-2.95-2.38-6.53-3.57-10.74-3.57
	c-5.82,0-10.55,2.11-14.17,6.33c-3.63,4.22-5.44,11.06-5.44,20.51c0,10.03,1.79,17.17,5.36,21.43c3.57,4.26,8.22,6.38,13.93,6.38
	c4.21,0,7.84-1.35,10.88-4.06C509.29,72.02,511.47,67.77,512.8,61.96z"/>
<path d="M540.89,90.74V12.18h15.86V43.1h31.08V12.18h15.86v78.55h-15.86V56.39h-31.08v34.35H540.89z"/>
<path d="M619.15,90.74V12.18h58.25v13.29h-42.39v17.41h39.44v13.24h-39.44V77.5h43.89v13.24H619.15z"/>
<path d="M693.81,90.74V12.18h15.86v34.88l32.04-34.88h21.33l-29.58,30.6l31.19,47.96h-20.52l-21.59-36.87L709.68,67v23.74H693.81z"
	/>
<path class="st0" d="M49.29,165.45v-9.19l33.2-0.05v32.73c-5.1,4.06-10.35,7.12-15.77,9.17c-5.42,2.05-10.98,3.07-16.68,3.07
	c-7.7,0-14.69-1.65-20.98-4.94c-6.29-3.3-11.04-8.06-14.25-14.3c-3.21-6.24-4.81-13.2-4.81-20.9c0-7.63,1.59-14.75,4.78-21.36
	c3.19-6.61,7.78-11.52,13.77-14.73c5.99-3.21,12.88-4.81,20.69-4.81c5.67,0,10.79,0.92,15.37,2.75c4.58,1.84,8.17,4.39,10.77,7.67
	c2.25,2.83,4.11,6.38,5.34,10.72c0.02,0.07-9.36,2.8-9.37,2.76c-0.85-3.16-2.32-5.59-3.77-7.49c-1.75-2.28-4.24-4.11-7.48-5.48
	c-3.24-1.37-6.84-2.06-10.8-2.06c-4.74,0-8.84,0.72-12.3,2.17c-3.46,1.44-6.25,3.34-8.37,5.69c-2.12,2.35-3.77,4.94-4.94,7.75
	c-2,4.85-2.99,10.1-2.99,15.77c0,6.99,1.2,12.83,3.61,17.53c2.41,4.7,5.91,8.2,10.5,10.48c4.6,2.28,9.48,3.42,14.65,3.42
	c4.49,0,8.87-0.86,13.15-2.59c4.28-1.73,7.52-3.57,9.73-5.53v-18.24H49.29z"/>
<path class="st0" d="M98.82,199.84v-78.37h34.75c6.99,0,12.3,0.7,15.93,2.11c3.64,1.41,6.54,3.89,8.71,7.46
	c2.17,3.56,3.26,7.5,3.26,11.81c0,5.56-1.8,10.25-5.4,14.06c-3.6,3.81-9.67,5.96-16.68,7.27c0.03-0.01,28.49,35.66,28.49,35.66
	h-13.04l-27.85-34.8c0,0-3.1,0-5.77,0h-12.03v34.8H98.82z M109.19,156.05h22.29c4.74,0,8.45-0.49,11.12-1.47
	c2.67-0.98,4.7-2.55,6.09-4.7c1.39-2.16,2.08-4.5,2.08-7.03c0-3.71-1.35-6.75-4.04-9.14c-2.69-2.39-6.94-3.58-12.75-3.58h-24.81
	V156.05z"/>
<path class="st0" d="M171.8,161.67c0-13.01,3.49-23.19,10.48-30.55c6.99-7.36,16-11.04,27.05-11.04c7.23,0,13.76,1.73,19.57,5.19
	c5.81,3.46,10.24,8.28,13.28,14.46c3.05,6.18,4.57,13.2,4.57,21.04c0,7.95-1.6,15.06-4.81,21.33c-3.21,6.27-7.75,11.02-13.63,14.25
	c-5.88,3.23-12.22,4.84-19.03,4.84c-7.38,0-13.97-1.78-19.78-5.35c-5.81-3.56-10.21-8.43-13.2-14.59
	C173.29,175.07,171.8,168.55,171.8,161.67z M182.49,161.83c0,9.44,2.54,16.89,7.62,22.32c5.08,5.44,11.45,8.15,19.11,8.15
	c7.81,0,14.23-2.74,19.27-8.23c5.04-5.49,7.56-13.28,7.56-23.36c0-6.38-1.08-11.95-3.23-16.71c-2.16-4.76-5.31-8.45-9.46-11.07
	s-8.81-3.93-13.98-3.93c-7.34,0-13.66,2.52-18.95,7.56C185.13,141.61,182.49,150.03,182.49,161.83z"/>
<path class="st0" d="M308.77,121.47h10.37v45.28c0,7.88-0.89,14.13-2.67,18.76c-1.78,4.63-5,8.4-9.65,11.31
	c-4.65,2.91-10.75,4.36-18.31,4.36c-7.34,0-13.35-1.27-18.02-3.8c-4.67-2.53-8-6.19-10-10.99c-2-4.79-2.99-11.34-2.99-19.65v-45.28
	h10.37v45.23c0,6.81,0.63,11.82,1.9,15.05c1.27,3.23,3.44,5.71,6.52,7.46c3.08,1.75,6.85,2.62,11.31,2.62
	c7.63,0,13.06-1.73,16.31-5.19c3.24-3.46,4.86-10.1,4.86-19.94V121.47z"/>
<path class="st0" d="M333.63,199.84v-78.37h29.56c5.2,0,9.18,0.25,11.92,0.75c3.85,0.64,7.07,1.86,9.68,3.66
	c2.6,1.8,4.7,4.32,6.28,7.56c1.59,3.24,2.38,6.81,2.38,10.69c0,6.66-2.12,12.3-6.36,16.92c-4.24,4.62-11.9,6.92-22.99,6.92H344
	v31.86H333.63z M344,158.73h20.26c6.7,0,11.46-1.25,14.27-3.74c2.82-2.49,4.22-6.01,4.22-10.53c0-3.28-0.83-6.09-2.49-8.42
	c-1.66-2.33-3.84-3.88-6.55-4.62c-1.75-0.46-4.97-0.69-9.68-0.69H344V158.73z"/>
<text transform="matrix(1 0 0 1 1185.7999 75.1689)" style="display:none;"><tspan x="0" y="0" style="display:inline;fill:#666666; font-family:'ArialMT'; font-size:87.239px; letter-spacing:-1;">SHAPE</tspan><tspan x="0" y="100.52" style="display:inline;fill:#666666; font-family:'ArialMT'; font-size:87.239px; letter-spacing:-1;">THE</tspan><tspan x="0" y="201.05" style="display:inline;fill:#666666; font-family:'ArialMT'; font-size:87.239px; letter-spacing:-1;">WORLD</tspan></text>
<g>
	<path class="st0" d="M849.89,42.11l5.55-0.48c0.26,2.22,0.87,4.05,1.83,5.47c0.96,1.43,2.45,2.58,4.47,3.46
		c2.02,0.88,4.3,1.32,6.82,1.32c2.24,0,4.23-0.33,5.94-1c1.72-0.67,3-1.58,3.84-2.74c0.84-1.16,1.26-2.43,1.26-3.81
		c0-1.4-0.4-2.61-1.21-3.65c-0.81-1.04-2.14-1.92-4-2.62c-1.19-0.46-3.83-1.19-7.92-2.17c-4.08-0.98-6.94-1.91-8.58-2.78
		c-2.12-1.11-3.71-2.49-4.75-4.14c-1.04-1.65-1.56-3.49-1.56-5.53c0-2.24,0.64-4.34,1.91-6.29c1.27-1.95,3.13-3.43,5.58-4.44
		c2.45-1.01,5.17-1.52,8.16-1.52c3.3,0,6.2,0.53,8.72,1.59c2.52,1.06,4.45,2.62,5.81,4.69c1.35,2.06,2.08,4.4,2.18,7.01l-5.64,0.42
		c-0.3-2.81-1.33-4.93-3.08-6.37c-1.75-1.43-4.33-2.15-7.75-2.15c-3.56,0-6.15,0.65-7.78,1.96c-1.63,1.3-2.44,2.88-2.44,4.72
		c0,1.6,0.58,2.91,1.73,3.94c1.13,1.03,4.09,2.09,8.87,3.17c4.78,1.08,8.06,2.03,9.84,2.84c2.59,1.19,4.5,2.7,5.73,4.53
		c1.23,1.83,1.85,3.94,1.85,6.32c0,2.37-0.68,4.59-2.03,6.69c-1.35,2.09-3.3,3.72-5.84,4.88c-2.54,1.16-5.39,1.74-8.57,1.74
		c-4.02,0-7.39-0.59-10.11-1.76c-2.72-1.17-4.85-2.94-6.4-5.29C850.78,47.75,849.97,45.08,849.89,42.11z"/>
	<path class="st0" d="M892.25,56.4V11.94h5.88v18.26h23.11V11.94h5.88V56.4h-5.88V35.44h-23.11V56.4H892.25z"/>
	<path class="st0" d="M930.8,56.4l17.07-44.46h6.34l18.2,44.46h-6.7l-5.19-13.46h-18.59l-4.88,13.46H930.8z M943.63,38.14h15.07
		l-4.64-12.31c-1.41-3.74-2.47-6.81-3.15-9.22c-0.57,2.85-1.36,5.68-2.4,8.49L943.63,38.14z"/>
	<path class="st0" d="M975.87,56.4V11.94h16.77c2.95,0,5.21,0.14,6.76,0.42c2.18,0.36,4.01,1.06,5.49,2.08
		c1.48,1.02,2.66,2.45,3.56,4.29c0.9,1.84,1.35,3.86,1.35,6.07c0,3.78-1.2,6.98-3.61,9.6c-2.41,2.62-6.75,3.93-13.04,3.93h-11.4
		V56.4H975.87z M981.75,33.08h11.49c3.8,0,6.5-0.71,8.1-2.12c1.6-1.41,2.4-3.41,2.4-5.97c0-1.86-0.47-3.45-1.41-4.78
		c-0.94-1.32-2.18-2.2-3.71-2.62c-0.99-0.26-2.82-0.39-5.49-0.39h-11.37V33.08z"/>
	<path class="st0" d="M1016.17,56.4V11.94h32.15v5.25h-26.26V30.8h24.59v5.22h-24.59v15.13h27.29v5.25H1016.17z"/>
	<path class="st0" d="M863.2,127.96V88.75h-14.65V83.5h35.24v5.25h-14.71v39.21H863.2z"/>
	<path class="st0" d="M888.76,127.96V83.5h5.88v18.26h23.11V83.5h5.88v44.46h-5.88v-20.96h-23.11v20.96H888.76z"/>
	<path class="st0" d="M932.31,127.96V83.5h32.15v5.25H938.2v13.62h24.59v5.22H938.2v15.13h27.29v5.25H932.31z"/>
	<path class="st0" d="M859.65,199.53l-11.8-44.46h6.04l6.76,29.14c0.73,3.05,1.35,6.09,1.88,9.1c1.13-4.75,1.8-7.49,2-8.22
		l8.46-30.02h7.1l6.37,22.5c1.6,5.58,2.75,10.83,3.46,15.74c0.57-2.81,1.3-6.03,2.21-9.67l6.97-28.57h5.91l-12.19,44.46h-5.67
		l-9.37-33.87c-0.79-2.83-1.25-4.57-1.4-5.22c-0.47,2.04-0.9,3.78-1.3,5.22l-9.43,33.87H859.65z"/>
	<path class="st0" d="M907.48,177.88c0-7.38,1.98-13.16,5.94-17.33c3.96-4.17,9.08-6.26,15.34-6.26c4.1,0,7.8,0.98,11.1,2.94
		c3.3,1.96,5.81,4.7,7.54,8.2c1.73,3.51,2.59,7.49,2.59,11.93c0,4.51-0.91,8.54-2.73,12.1c-1.82,3.56-4.4,6.25-7.73,8.08
		c-3.34,1.83-6.93,2.74-10.8,2.74c-4.19,0-7.93-1.01-11.22-3.03s-5.79-4.78-7.49-8.28C908.33,185.48,907.48,181.78,907.48,177.88z
		 M913.54,177.97c0,5.36,1.44,9.58,4.32,12.66s6.49,4.62,10.84,4.62c4.43,0,8.07-1.56,10.93-4.67c2.86-3.11,4.29-7.53,4.29-13.25
		c0-3.62-0.61-6.78-1.83-9.48c-1.22-2.7-3.01-4.79-5.37-6.28c-2.36-1.49-5-2.23-7.93-2.23c-4.17,0-7.75,1.43-10.75,4.29
		C915.04,166.5,913.54,171.28,913.54,177.97z"/>
	<path class="st0" d="M999.7,199.53v-44.46h5.88v39.21h21.9v5.25H999.7z"/>
	<path class="st0" d="M1033.24,199.53v-44.46h15.32c3.46,0,6.1,0.21,7.91,0.64c2.55,0.59,4.72,1.65,6.52,3.18
		c2.35,1.98,4.1,4.51,5.26,7.6c1.16,3.08,1.74,6.61,1.74,10.57c0,3.38-0.39,6.37-1.18,8.98c-0.79,2.61-1.8,4.77-3.03,6.47
		c-1.23,1.71-2.58,3.05-4.05,4.03c-1.47,0.98-3.23,1.72-5.31,2.23c-2.07,0.51-4.45,0.76-7.14,0.76H1033.24z M1039.13,194.28h9.49
		c2.93,0,5.23-0.27,6.9-0.82c1.67-0.55,3-1.31,3.99-2.3c1.4-1.39,2.48-3.27,3.26-5.63c0.78-2.36,1.17-5.21,1.17-8.57
		c0-4.65-0.76-8.22-2.29-10.72c-1.53-2.5-3.38-4.17-5.57-5.02c-1.58-0.61-4.11-0.91-7.61-0.91h-9.34V194.28z"/>
</g>
<path class="st1" d="M416.94,120.82c2.5,0,4.94,0.64,7.32,1.92c2.38,1.28,4.24,3.12,5.57,5.51c1.33,2.39,1.99,4.88,1.99,7.47
	c0,2.57-0.65,5.03-1.96,7.4c-1.31,2.37-3.15,4.21-5.51,5.52c-2.36,1.31-4.83,1.96-7.41,1.96s-5.05-0.65-7.41-1.96
	c-2.36-1.31-4.2-3.15-5.52-5.52c-1.32-2.37-1.97-4.84-1.97-7.4c0-2.59,0.67-5.08,2-7.47c1.34-2.39,3.19-4.22,5.58-5.51
	C412,121.46,414.44,120.82,416.94,120.82z M416.94,123.29c-2.09,0-4.13,0.54-6.11,1.61c-1.98,1.07-3.53,2.61-4.65,4.6
	c-1.12,1.99-1.68,4.07-1.68,6.23c0,2.14,0.55,4.2,1.65,6.17c1.1,1.97,2.64,3.5,4.61,4.6c1.97,1.1,4.03,1.65,6.18,1.65
	c2.14,0,4.2-0.55,6.18-1.65c1.97-1.1,3.51-2.63,4.6-4.6c1.09-1.97,1.64-4.02,1.64-6.17c0-2.16-0.56-4.23-1.67-6.23
	c-1.11-1.99-2.66-3.53-4.65-4.6C421.05,123.83,419.02,123.29,416.94,123.29z M410.41,143.96v-16.03h5.51c1.88,0,3.24,0.15,4.09,0.44
	c0.84,0.3,1.51,0.81,2.01,1.55c0.5,0.74,0.75,1.52,0.75,2.35c0,1.17-0.42,2.19-1.25,3.06c-0.84,0.87-1.94,1.36-3.33,1.46
	c0.57,0.24,1.02,0.52,1.36,0.85c0.64,0.63,1.43,1.69,2.37,3.18l1.95,3.14h-3.16l-1.42-2.53c-1.12-1.99-2.02-3.23-2.7-3.73
	c-0.47-0.37-1.16-0.55-2.07-0.55h-1.52v6.81H410.41z M412.99,134.94h3.14c1.5,0,2.52-0.22,3.07-0.67c0.55-0.45,0.82-1.04,0.82-1.78
	c0-0.47-0.13-0.9-0.39-1.27c-0.26-0.37-0.63-0.65-1.1-0.84c-0.47-0.18-1.33-0.28-2.6-0.28h-2.94V134.94z"/>
<rect x="804.7" y="11.75" class="st0" width="3.17" height="187.89"/>
<path class="st0" d="M956.42,199.53v-44.46h19.71c3.96,0,6.98,0.4,9.04,1.2c2.06,0.8,3.71,2.21,4.94,4.23
	c1.23,2.02,1.85,4.26,1.85,6.7c0,3.15-1.02,5.81-3.06,7.98c-2.04,2.16-5.49,3.38-9.46,4.12c0.02,0,16.16,20.23,16.16,20.23h-7.4
	l-15.8-19.74c0,0-1.76,0-3.28,0h-6.82v19.74H956.42z M962.31,174.69h12.65c2.69,0,4.79-0.28,6.31-0.83
	c1.52-0.56,2.67-1.45,3.46-2.67c0.79-1.22,1.18-2.55,1.18-3.99c0-2.1-0.76-3.83-2.29-5.19c-1.53-1.35-3.94-2.03-7.23-2.03h-14.07
	V174.69z"/>
</svg>
